<?xml version="1.0" encoding="UTF-8"?>
<svg version="1.1" xmlns="http://www.w3.org/2000/svg" width="64" height="64">
<path d="M0 0 C2 2 2 2 2.1953125 3.9453125 C2.13020833 5.96354167 2.06510417 7.98177083 2 10 C3.57587891 9.93039063 3.57587891 9.93039063 5.18359375 9.859375 C14.49568732 9.56532057 22.06908801 9.40353247 29.24609375 16.09375 C34.6983534 21.92504375 37.27232805 26.26939055 37.1953125 34.39453125 C37.18886719 35.59658203 37.18242188 36.79863281 37.17578125 38.03710938 C37.15064453 39.90592773 37.15064453 39.90592773 37.125 41.8125 C37.11597656 43.07771484 37.10695313 44.34292969 37.09765625 45.64648438 C37.07412394 48.76451564 37.04124545 51.88216097 37 55 C31.25 56.125 31.25 56.125 29 55 C28.26399675 52.53618426 27.72094907 50.05461162 27.171875 47.54296875 C25.47189798 43.85401861 23.62481046 42.79611395 20 41 C16.87233509 40.41987993 13.80077024 40.30571527 10.625 40.25 C9.79355469 40.22035156 8.96210937 40.19070312 8.10546875 40.16015625 C6.07082173 40.08999601 4.03540909 40.04267105 2 40 C2.02191406 41.11503906 2.04382813 42.23007812 2.06640625 43.37890625 C2 47 2 47 0.9375 48.9375 C-2.29559783 50.71048913 -4.3524169 50.516864 -8 50 C-10.96449142 47.79262553 -13.28059692 45.10314746 -15.6875 42.3125 C-16.66299805 41.2306543 -16.66299805 41.2306543 -17.65820312 40.12695312 C-19.46738242 38.10753281 -21.23917596 36.06158838 -23 34 C-23.79664063 33.0821875 -24.59328125 32.164375 -25.4140625 31.21875 C-27.32564701 28.54441502 -27.7598811 26.36753123 -27.55859375 23.0859375 C-26.4032238 18.77147908 -23.069171 16.08449132 -20 13 C-18.97280051 11.88485185 -17.95104901 10.76467081 -16.93359375 9.640625 C-6.78090215 -1.55395674 -6.78090215 -1.55395674 0 0 Z M-8 13 C-9.48185125 14.62255228 -10.96040256 16.24811888 -12.4375 17.875 C-13.26121094 18.77992187 -14.08492187 19.68484375 -14.93359375 20.6171875 C-17.00907942 22.81137927 -17.00907942 22.81137927 -18 25 C-16.92173635 26.27513763 -15.83714481 27.54492569 -14.75 28.8125 C-14.14671875 29.52019531 -13.5434375 30.22789063 -12.921875 30.95703125 C-11.07629602 32.91889671 -9.20054668 34.45669625 -7 36 C-6.67 34.68 -6.34 33.36 -6 32 C-1.64589022 31.9416279 2.70811793 31.90627827 7.0625 31.875 C8.29162109 31.85824219 9.52074219 31.84148438 10.78710938 31.82421875 C16.90556393 31.79123517 22.24479433 31.82790158 28 34 C27.71637301 28.18564666 25.18303812 24.80098077 21 21 C17.94498536 19.16881288 15.69826574 18.76000664 12.15625 18.76171875 C11.23972656 18.74560547 10.32320312 18.72949219 9.37890625 18.71289062 C7.45970299 18.69596414 5.54036061 18.69075522 3.62109375 18.69726562 C-3.43228889 18.5434999 -3.43228889 18.5434999 -6.65625 15.45703125 C-7.32140625 14.24080078 -7.32140625 14.24080078 -8 13 Z " fill="#898989" transform="translate(27,7)"/>
</svg>
